<?xml version="1.0" encoding="UTF-8" standalone="no"?>
<!-- Created with Inkscape (http://www.inkscape.org/) -->

<svg
   version="1.1"
   id="svg1"
   width="2666.5601"
   height="2666.5601"
   viewBox="0 0 2666.5601 2666.5601"
   xmlns="http://www.w3.org/2000/svg"
   xmlns:svg="http://www.w3.org/2000/svg">
  <defs
     id="defs1" />
  <g
     id="g1">
    <g
       id="g2">
      <path
         style="fill:#fbe2fc"
         d="M 0,1333.28 V 0 H 1333.28 2666.5601 V 1333.28 2666.5601 H 1333.28 0 Z m 1136.8,990.2677 c 30.0897,-3.6549 49.6211,-12.423 70.4,-31.6042 12.0521,-11.1255 22.566,-24.2468 40.9311,-51.0819 l 2.8049,-4.0985 0.852,0.5595 c 0.4686,0.3077 2.796,1.7317 5.172,3.1646 44.4677,26.8159 93.644,35.669 135.68,24.4262 11.9155,-3.1868 29.7578,-10.542 39.5578,-16.307 23.8973,-14.0581 44.4591,-37.8756 60.7903,-70.4158 2.7211,-5.4218 6.9112,-14.6441 8.9528,-19.7049 0.8685,-2.1529 1.6892,-3.9169 1.8237,-3.92 0.1345,0 3.6625,2.3976 7.84,5.3348 41.6799,29.3059 69.6432,42.0091 100.3954,45.6076 2.3427,0.2742 8.0152,0.4108 16.96,0.4084 14.7869,0 17.8659,-0.2606 28.7511,-2.3969 41.2839,-8.1023 80.2835,-35.3751 105.246,-73.5996 5.4761,-8.3854 9.1767,-15.2259 13.9356,-25.76 9.1276,-20.2039 12.9958,-36.5629 15.1711,-64.16 0.4528,-5.7438 0.5757,-56.1846 0.1469,-60.24 l -0.2285,-2.16 h 8.7289 c 125.0769,-0.043 245.4618,-41.4913 337.1436,-116.0768 12.9227,-10.5129 22.0916,-18.8421 35.2811,-32.0499 19.5067,-19.5337 30.8444,-32.9429 49.1359,-58.1132 10.4452,-14.3732 17.3824,-24.7755 25.3931,-38.0771 53.0269,-88.0495 82.0691,-195.7148 88.0017,-326.24 0.8075,-17.7665 1.0492,-33.8142 0.8723,-57.92 -0.1726,-23.5328 -0.3283,-29.9323 -1.1792,-48.48 -0.8906,-19.4117 -2.7267,-41.7776 -5.3033,-64.5981 -19.9467,-176.669 -81.9278,-345.31271 -177.8985,-484.04188 C 2106.9644,686.67128 2055.7826,629.8314 1995.84,578.40137 1893.1154,490.26488 1763.7854,428.84459 1620.16,399.98673 c -48.4553,-9.73587 -92.3357,-15.02629 -146.08,-17.6121 -18.6075,-0.89526 -60.4415,-0.71006 -81.76,0.36195 -178.1903,8.96047 -340.9454,68.54032 -461.91998,169.09539 -28.03805,23.30545 -54.91282,49.98246 -89.15911,88.50298 C 758.81745,733.04558 710.10298,815.61283 688.79437,898.72002 681.4129,927.509 677.12091,959.2975 677.1202,985.1843 l -1.9e-4,6.78427 -3.28,2.65246 c -16.35956,13.22957 -34.3003,30.70167 -48.22144,46.96167 -52.89748,61.7846 -85.57925,141.1869 -92.00735,223.5373 -1.188,15.2195 -3.263,47.6423 -4.32116,67.52 -2.29592,43.1296 -3.04891,73.0823 -2.78742,110.88 0.2094,30.2695 0.62215,43.2883 2.16095,68.16 6.15834,99.5377 25.61282,183.4959 59.50473,256.8 5.94019,12.848 16.48683,33.0474 22.591,43.2674 22.43242,37.5578 55.8991,70.6356 95.4913,94.3815 41.23046,24.7285 88.61594,40.3721 137.8467,45.508 3.22152,0.3361 5.94235,0.6961 6.0463,0.8001 0.20881,0.2088 0.20555,0.1709 0.91137,10.603 3.70396,54.7454 16.75076,111.6165 36.76663,160.266 18.98937,46.1546 43.5655,85.9654 74.606,120.854 9.17724,10.315 28.03821,28.6515 38.28708,37.2224 28.4816,23.8186 65.6783,39.3932 101.3653,42.4426 2.2,0.1879 4.504,0.3979 5.12,0.4666 0.616,0.069 6.304,0.078 12.64,0.021 9.1784,-0.083 12.6258,-0.2382 16.96,-0.7647 z M 1005.7614,2135.12 c -3.997,-7.3465 -12.42828,-24.2631 -15.66989,-31.44 -19.94087,-44.1489 -31.97919,-88.6818 -36.17398,-133.8169 -0.37095,-3.9914 -0.63014,-7.9254 -0.57598,-8.7422 l 0.0985,-1.4852 12.92824,-4.6176 c 61.28261,-21.8888 101.43701,-40.1462 136.35171,-61.9964 15.9673,-9.9926 37.1776,-25.5037 43.3722,-31.7182 8.6685,-8.6962 14.3192,-19.0688 20.1116,-36.9175 2.1684,-6.6817 4.1445,-13.5043 3.9638,-13.685 -0.072,-0.072 -5.3778,1.0252 -11.7896,2.4393 -88.1567,19.4426 -133.4257,27.7448 -176.93795,32.4498 -2.552,0.2759 -5.216,0.5676 -5.92,0.6481 -2.25899,0.2584 -14.62778,1.3926 -17.44,1.5992 -1.496,0.1099 -3.224,0.2551 -3.84,0.3227 -0.616,0.067 -2.488,0.2084 -4.16,0.3131 -1.672,0.1046 -3.976,0.2532 -5.12,0.3301 -1.144,0.077 -3.808,0.2192 -5.92,0.3162 -2.112,0.097 -4.632,0.2418 -5.6,0.3218 -9.03149,0.7465 -44.45592,0.7449 -54.4,0 -0.968,-0.073 -3.56,-0.22 -5.76,-0.3271 -19.52608,-0.9512 -49.58148,-4.8396 -65.76,-8.5077 -41.68849,-9.4517 -78.71583,-37.007 -107.66669,-80.1241 -14.35849,-21.3843 -26.39008,-46.1381 -35.22897,-72.48 -10.11901,-30.1569 -19.20346,-68.2128 -24.90257,-104.32 -4.13211,-26.1793 -7.63609,-58.7784 -8.83972,-82.24 -0.10384,-2.024 -0.24739,-4.256 -0.31901,-4.96 -0.0716,-0.704 -0.21868,-3.44 -0.32682,-6.08 -0.10814,-2.64 -0.25093,-5.52 -0.31731,-6.4 -0.0664,-0.88 -0.21159,-4.624 -0.32268,-8.32 -0.11109,-3.696 -0.27164,-7.656 -0.35678,-8.8 -0.31498,-4.2323 -0.41994,-59.0995 -0.13376,-69.92 0.42482,-16.0622 0.64296,-23.001 0.81485,-25.92 0.0829,-1.408 0.22709,-4.792 0.3204,-7.52 0.0933,-2.728 0.23708,-6.112 0.31948,-7.52 0.0824,-1.408 0.23162,-4.432 0.33159,-6.72 0.26168,-5.9892 1.37015,-26.339 1.75178,-32.16 0.17885,-2.728 0.3982,-6.112 0.48743,-7.52 0.0892,-1.408 0.23218,-3.496 0.31765,-4.64 0.0855,-1.144 0.44031,-6.544 0.78853,-12 1.43123,-22.4247 2.473,-31.3632 5.30991,-45.5593 7.64934,-38.2779 22.77511,-71.0948 45.20275,-98.072 8.43572,-10.147 38.22799,-39.7163 61.85611,-61.3931 84.75164,-77.7528 173.80668,-136.87063 264.75378,-175.75288 4.224,-1.80587 9.408,-3.97808 11.52,-4.82714 2.112,-0.84905 3.9547,-1.64126 4.0948,-1.76046 0.3708,-0.31536 -6.3127,-6.61353 -9.7725,-9.20907 -7.4573,-5.59454 -15.3228,-9.2694 -23.55385,-11.0047 -2.39646,-0.50523 -4.59398,-0.67512 -9.8084,-0.75831 -6.65369,-0.10614 -14.95777,-0.41916 -17.12,-0.64533 -1.70637,-0.17849 -30.97579,-0.15998 -33.48137,0.0212 -1.20924,0.0874 -4.79063,0.30948 -7.95863,0.49347 -43.6253,2.53355 -89.90593,12.90544 -132.41074,29.67437 -5.0892,2.00778 -5.66788,2.1726 -5.47447,1.5592 0.40279,-1.27737 6.76562,-16.32937 9.49681,-22.46578 9.53085,-21.41379 21.36928,-44.69004 33.06621,-65.01346 C 888.65468,726.26092 971.39615,640.0749 1068.8,579.46143 c 16.4702,-10.24921 24.7522,-14.93713 36.96,-20.92053 78.43,-38.44091 167.5623,-62.92028 258.56,-71.01109 6.7451,-0.59972 8.3344,-0.73509 11.36,-0.96761 1.32,-0.10143 3.192,-0.24545 4.16,-0.32002 0.968,-0.0746 3.272,-0.22003 5.12,-0.32324 1.848,-0.1032 4.008,-0.24423 4.8,-0.31339 0.792,-0.0692 3.816,-0.22483 6.72,-0.34593 2.904,-0.12109 5.3564,-0.26302 5.4498,-0.31539 0.4395,-0.24644 22.2208,-0.62422 35.9902,-0.62422 13.6041,0 30.9668,0.31066 35.04,0.62695 0.792,0.0615 3.672,0.20447 6.4,0.31771 4.475,0.18576 15.4332,0.86476 20.8,1.28884 47.7553,3.77351 91.1637,10.66139 136.2288,21.61626 14.5173,3.52903 38.3177,10.03417 52.1806,14.26209 81.3763,24.81813 159.6686,66.62141 229.6039,122.59435 80.579,64.49168 148.3497,145.64966 199.0199,238.33381 11.3464,20.75437 24.9107,48.55258 29.3555,60.16 5.0667,13.23145 9.525,29.20757 11.5197,41.28 3.2657,19.76468 5.1554,37.25158 6.0846,56.30528 0.4189,8.5889 0.4212,31.9509 0,40.6547 -2.9424,61.3843 -16.9523,119.6145 -42.7968,177.8794 -4.0092,9.0386 -13.9501,29.1035 -18.7279,37.8006 -20.4611,37.2465 -44.9125,71.4504 -74.0276,103.5538 -6.4907,7.1568 -26.8273,27.496 -33.9615,33.9658 -12.467,11.3058 -26.6317,23.0104 -39.4432,32.5925 -6.6278,4.9572 -18.2535,13.1988 -18.3791,13.0292 -0.041,-0.056 -1.3078,-2.9093 -2.8143,-6.3413 -15.5713,-35.472 -29.0242,-72.8563 -43.2401,-120.16 -6.5028,-21.6384 -12.2692,-42.0297 -24.2065,-85.6 -14.8362,-54.1513 -21.8552,-78.5638 -30.4306,-105.8389 -4.526,-14.3955 -14.1554,-42.9734 -15.0043,-44.5294 -0.1748,-0.3203 -1.1474,0.6843 -3.408,3.52 -15.8747,19.9137 -22.5166,34.9506 -22.8023,51.6237 -0.036,2.0984 -0.1201,3.9038 -0.1869,4.0119 -0.2616,0.4232 -0.6398,14.438 -0.6437,23.8527 0,9.0588 0.3402,24.1485 0.631,27.68 0.065,0.792 0.2059,3.024 0.3125,4.96 0.8156,14.8016 2.4413,31.8647 6.5702,68.96 4.2382,38.0758 5.3562,49.3434 6.5569,66.08 0.9195,12.8158 1.1444,16.2437 1.4381,21.92 0.1867,3.608 0.4133,7.568 0.5036,8.8 0.297,4.0543 0.394,44.333 0.1237,51.36 -2.8586,74.2917 -18.051,140.6451 -45.5725,199.04 -5.7928,12.2912 -15.9181,31.0016 -20.7805,38.4 -6.8074,10.3581 -16.1078,20.1099 -26.9072,28.2133 -17.4813,13.1171 -39.8088,23.4113 -72.6504,33.4957 -9.7576,2.9962 -39.7921,11.5526 -46.258,13.1782 -32.2403,8.1056 -70.7864,12.8669 -117.7316,14.5423 -2.728,0.097 -6.256,0.2459 -7.84,0.33 -1.584,0.084 -6.048,0.2308 -9.92,0.3259 -8.7979,0.2162 -14.9988,0.4872 -15.175,0.6631 -0.074,0.074 0.3989,1.7541 1.0515,3.7332 2.751,8.3436 6.4405,14.2041 13.1439,20.8783 6.8989,6.8689 13.13,11.0863 25.2996,17.1238 11.6096,5.7596 33.3795,14.9539 46.7128,19.7287 28.2189,10.1053 61.5986,17.5518 92.9672,20.7395 8.403,0.8539 7.9864,0.7101 7.9951,2.7609 0.01,1.995 1.8596,16.1719 3.8333,29.3569 4.3869,29.3076 5.1121,36.192 5.3571,50.8558 0.1881,11.2531 -0.069,16.3737 -1.2001,23.8647 -1.6665,11.0417 -4.5023,20.2039 -9.0953,29.3862 -2.3381,4.6745 -7.9221,13.5785 -11.002,17.5435 -5.8199,7.4925 -14.4356,14.1973 -24.8481,19.3368 -8.2868,4.0904 -17.7395,7.4465 -36.48,12.9519 -5.984,1.7579 -11.5626,3.4056 -12.397,3.6616 l -1.5169,0.4653 -3.211,-3.3631 c -6.0977,-6.3867 -10.9447,-13.4893 -15.797,-23.1486 -5.1491,-10.2499 -8.5695,-19.7287 -15.2364,-42.2239 -8.7006,-29.357 -13.1926,-40.3827 -21.511,-52.7989 -5.7388,-8.566 -8.3129,-10.9899 -15.4507,-14.5493 -6.8555,-3.4187 -12.1837,-4.6888 -19.5661,-4.6641 -6.8322,0.023 -12.1067,1.1258 -18.3654,3.8404 -9.1623,3.9739 -18.2028,11.7865 -24.4532,21.1319 -3.8749,5.7938 -7.3664,14.2506 -8.7899,21.2905 -1.4158,7.002 -10.3398,26.6622 -18.7279,41.259 -21.5196,37.4483 -53.5627,72.5472 -94.0975,103.0712 -7.7787,5.8576 -15.1798,11.1462 -15.3542,10.9717 -0.2358,-0.2357 -2.6578,-11.2203 -4.1525,-18.8324 -0.8121,-4.136 -2.6989,-14.504 -4.193,-23.04 -4.6516,-26.5766 -6.6618,-36.8708 -9.4184,-48.2302 -3.5997,-14.8341 -8.5615,-29.9167 -11.083,-33.6898 -6.5775,-9.8422 -17.4299,-16.8763 -29.3989,-19.055 -3.9655,-0.7218 -11.4358,-0.9543 -15.5346,-0.4833 -15.1218,1.7375 -28.7556,9.4279 -37.3671,21.0776 -3.5074,4.7448 -5.4377,8.784 -8.059,16.8634 -6.1354,18.9105 -15.1412,35.0412 -28.4989,51.0452 -3.0614,3.668 -14.0425,14.9644 -18.2204,18.7436 -14.9052,13.4831 -36.155,28.0064 -62.56,42.7571 -8.9563,5.0033 -38.9592,21.0514 -39.3568,21.0514 -0.069,0 -1.4379,-2.412 -3.0418,-5.36 z M 1297.28,1834.1037 c 2.024,-0.2606 5.912,-0.4722 8.64,-0.4702 7.2064,0.01 12.1947,-0.8488 17.991,-3.0801 22.7993,-8.7766 40.2938,-37.0376 45.0614,-72.7934 0.3403,-2.552 0.9819,-6.5637 1.4258,-8.9149 1.6379,-8.6755 2.3212,-16.7768 2.2171,-26.2851 -0.3345,-30.5571 -10.595,-63.0515 -31.4245,-99.52 -5.7421,-10.0532 -9.316,-15.8059 -17.4947,-28.16 -10.9609,-16.5568 -18.4256,-26.1513 -27.8546,-35.8019 -10.009,-10.2443 -18.1479,-16.4982 -27.6815,-21.2704 -10.3315,-5.1716 -20.2361,-7.2494 -30.2468,-6.3452 -4.2971,0.3881 -9.8815,1.6111 -13.3401,2.9215 -3.7366,1.4158 -14.0967,9.6874 -21.8564,17.4506 -17.2002,17.2077 -30.2376,38.9755 -38.3348,64.0054 -3.8953,12.0412 -6.7526,25.8245 -7.8939,38.08 -0.1967,2.112 -0.4265,4.344 -0.5106,4.96 -0.3094,2.2649 -0.3851,20.1326 -0.103,24.32 2.0028,29.7322 10.8118,56.9101 25.6706,79.2 10.4544,15.6828 30.4699,37.0622 46.1617,49.307 17.9436,14.0021 36.6084,21.8395 54.6933,22.9659 3.2243,0.2009 11.2984,-0.108 14.88,-0.5692 z M 982.51116,1735.205 c 21.81174,-2.3145 41.10844,-9.0993 58.28884,-20.4945 5.6672,-3.7589 9.7861,-7.0568 16.64,-13.3235 30.2465,-27.6549 52.6132,-61.7157 68.5028,-104.3188 10.0539,-26.9562 16.9537,-56.452 21.0973,-90.1882 1.2199,-9.9317 2.5048,-26.8524 2.8797,-37.92 0.3709,-10.955 0.4825,-13.831 0.6704,-17.28 0.5769,-10.5887 0.6829,-16.7812 0.5803,-33.92 -0.062,-10.384 -0.1755,-19.312 -0.2519,-19.84 -0.076,-0.528 -0.2306,-3.264 -0.3426,-6.08 -0.112,-2.816 -0.2638,-5.552 -0.3373,-6.08 -0.074,-0.528 -0.2183,-2.616 -0.3216,-4.64 -0.1034,-2.024 -0.2482,-4.112 -0.3219,-4.64 -0.074,-0.528 -0.218,-2.112 -0.3207,-3.52 -0.1028,-1.408 -0.2523,-3.136 -0.3323,-3.84 -0.08,-0.704 -0.5119,-4.664 -0.9597,-8.8 -4.4509,-41.1075 -14.5554,-81.66 -29.0854,-116.7286 -15.857,-38.2713 -37.9331,-72.4028 -64.4971,-99.7175 -34.6377,-35.6167 -82.70792,-55.5931 -128.31998,-53.3257 -14.39623,0.7157 -27.96515,3.4468 -40.64,8.1799 -33.51461,12.5152 -64.92028,36.9394 -89.27839,69.4319 -16.78729,22.3934 -29.45593,46.9914 -38.66635,75.0762 -11.78968,35.9496 -19.04253,72.8772 -21.36199,108.7638 -0.11944,1.848 -0.25779,3.72 -0.30745,4.16 -0.83428,7.392 -0.8237,49.7732 0.0139,55.84 0.0729,0.528 0.21552,2.4 0.31693,4.16 0.85974,14.9206 3.55104,35.5964 6.91445,53.12 13.50193,70.3461 43.18368,133.6543 86.07461,183.5885 15.53602,18.0872 32.30541,33.9746 51.96972,49.2362 3.17049,2.4607 6.98853,5.4917 8.48453,6.7356 18.46711,15.3556 43.55537,24.9351 70.24,26.82 5.17197,0.3653 17.21772,0.1234 22.67114,-0.4553 z m -77.34913,-329.6283 c -21.62822,-3.3634 -40.16795,-17.5207 -51.38584,-39.239 -10.31622,-19.9727 -13.66674,-44.7794 -9.11117,-67.4577 2.87078,-14.2911 8.6158,-26.8921 16.99657,-37.28 5.26575,-6.5268 10.87002,-11.1375 17.68493,-14.5498 6.80167,-3.4056 12.71052,-4.8448 20.4935,-4.9917 6.06324,-0.1143 8.5311,0.1435 13.99444,1.4621 11.82925,2.8551 23.30461,9.3832 33.11914,18.8409 11.04077,10.6393 18.75053,23.5945 22.19374,37.2935 0.44582,1.7738 1.08334,4.1184 1.4167,5.2104 1.04757,3.4314 2.16391,9.3494 2.73416,14.4946 0.43054,3.8847 0.50722,6.4169 0.35367,11.68 -0.10783,3.696 -0.27783,7.296 -0.37778,8 -2.00771,14.1411 -4.55079,22.8092 -9.63608,32.8449 -8.57634,16.925 -22.03029,28.6339 -37.41017,32.5579 -6.3731,1.626 -14.93725,2.087 -21.06581,1.1339 z m 648.98057,255.531 c 11.2558,-0.9129 22.0285,-3.0558 32.3724,-6.4395 10.5182,-3.4407 25.5439,-10.3536 33.965,-15.6264 24.2179,-15.1636 43.3761,-39.8943 60.7357,-78.4018 5.9263,-13.1458 24.8559,-60.1269 29.6016,-73.4678 14.5863,-41.0041 23.3965,-84.2004 26.1338,-128.1322 0.9285,-14.9011 1.0694,-38.2506 0.3043,-50.4 -0.133,-2.112 -0.3323,-5.424 -0.443,-7.36 -0.1106,-1.936 -0.26,-4.096 -0.332,-4.8 -0.072,-0.704 -0.2161,-2.36 -0.3203,-3.68 -2.6671,-33.7908 -10.9164,-71.8621 -22.5795,-104.2058 -12.3546,-34.2616 -31.0528,-69.3093 -48.8302,-91.5267 -9.271,-11.5865 -21.472,-23.8572 -32.7725,-32.9598 -28.2527,-22.7576 -59.7995,-36.0545 -92.1379,-38.8358 -3.9859,-0.3428 -17.4228,-0.4486 -20.16,-0.1587 -0.792,0.084 -2.52,0.2358 -3.84,0.3378 -13.1516,1.0153 -34.2377,6.5241 -49.2182,12.8582 -28.7256,12.146 -54.4217,33.0695 -76.2763,62.1092 -13.8201,18.3636 -26.9615,42.0914 -36.9864,66.7816 -14.2006,34.9745 -24.2357,75.6918 -28.392,115.2 -0.1111,1.056 -0.2663,2.496 -0.3449,3.2 -0.5074,4.5432 -1.3645,16.6091 -1.8981,26.72 -0.1785,3.3828 -0.1937,34.8082 -0.018,36.32 0.062,0.528 0.2056,3.3625 0.32,6.2988 0.1145,2.9363 0.2592,5.6723 0.3216,6.08 0.062,0.4077 0.2049,2.1812 0.3167,3.9412 0.1851,2.914 0.872,10.8114 1.322,15.2 0.2678,2.6114 2.0061,15.9978 2.5555,19.68 9.6228,64.4927 33.3841,126.8569 68.3985,179.52 17.7002,26.622 41.6263,48.0276 70.1392,62.7506 19.8077,10.2279 41.9449,16.9009 61.92,18.6649 2.2,0.1943 4.504,0.4002 5.12,0.4577 2.7948,0.2606 17.3322,0.1738 21.0226,-0.1255 z m -35.5053,-280.3521 c -11.8987,-1.2642 -21.3463,-7.4115 -28.9477,-18.8356 -4.8906,-7.35 -9.1841,-17.8714 -12.2349,-29.9826 -2.6614,-10.5652 -3.118,-13.7238 -4.8017,-33.2174 -2.769,-32.0579 0.7597,-53.2742 11.5228,-69.28 3.4706,-5.161 5.1012,-6.7031 9.3517,-8.8439 7.8451,-3.9512 17.9834,-2.7906 27.1125,3.1036 5.9565,3.8458 11.5181,10.0003 14.73,16.3003 1.434,2.8129 7.1073,19.0563 9.2206,26.4 3.9048,13.5694 6.5095,27.1451 7.3951,38.544 0.4264,5.4892 0.4313,17.5205 0.01,21.8221 -2.0351,20.7221 -8.7853,36.5735 -20.947,49.1893 -4.3412,4.5034 -4.7903,4.8045 -7.404,4.9637 -1.212,0.074 -3.4648,3e-4 -5.0063,-0.1635 z"
         id="path8" />
      <path
         style="fill:#ceadcf"
         d="m 1643.9688,1947.84 c 0,-2.728 0.049,-3.844 0.1091,-2.48 0.06,1.364 0.06,3.596 0,4.96 -0.06,1.364 -0.1091,0.248 -0.1091,-2.48 z M 2005.76,1424.557 c 0,-0.046 2.844,-2.8897 6.32,-6.32 l 6.32,-6.237 -6.2369,6.32 c -5.7949,5.8721 -6.4031,6.4645 -6.4031,6.237 z M 2164.6164,1061.6 c 3e-4,-3.872 0.046,-5.412 0.1027,-3.4222 0.056,1.9897 0.056,5.1577 -4e-4,7.04 -0.056,1.8822 -0.1025,0.2542 -0.1023,-3.6178 z"
         id="path7" />
      <path
         style="fill:#ab90ac"
         d="m 1798.96,1977.3616 c 1.628,-0.058 4.292,-0.058 5.92,0 1.628,0.058 0.296,0.1056 -2.96,0.1056 -3.256,0 -4.588,-0.048 -2.96,-0.1056 z M 1737.7288,1331.2 c 0,-2.728 0.049,-3.844 0.1091,-2.48 0.06,1.364 0.06,3.596 0,4.96 -0.06,1.364 -0.1091,0.248 -0.1091,-2.48 z m -185.2834,-15.04 c 0,-2.376 0.05,-3.348 0.1119,-2.16 0.062,1.188 0.062,3.132 0,4.32 -0.062,1.188 -0.1119,0.216 -0.1119,-2.16 z m 241.611,-114.4 c 2e-4,-3.872 0.047,-5.412 0.1027,-3.4222 0.056,1.9897 0.056,5.1577 -5e-4,7.04 -0.056,1.8822 -0.1024,0.2542 -0.1022,-3.6178 z"
         id="path6" />
      <path
         style="fill:#906692"
         d="m 2046.7173,625.68001 -6.8773,-6.96 6.96,6.87721 c 3.828,3.78247 6.96,6.91447 6.96,6.96 0,0.22717 -0.6526,-0.41012 -7.0427,-6.87721 z"
         id="path5" />
      <path
         style="fill:#841d89"
         d="m 1110.72,2223.678 c -8.1844,-0.6396 -16.279,-2.698 -22.1307,-5.6278 -12.3935,-6.2049 -25.0932,-15.9748 -38.5432,-29.6515 -8.1642,-8.3017 -12.3756,-13.0844 -27.7098,-31.4692 -14.3113,-17.1584 -13.4765,-16.1402 -13.3327,-16.2615 0.064,-0.054 6.4524,-3.4502 14.1964,-7.5472 28.3607,-15.0039 42.6696,-23.2914 58.24,-33.7313 39.381,-26.405 63.5858,-55.2218 75.1848,-89.5107 2.0168,-5.9622 1.8744,-6.1541 2.4064,3.2412 0.5117,9.0352 1.351,18.6176 3.6858,42.08 4.057,40.769 4.4476,46.8112 4.4674,69.12 0.016,18.0272 -0.091,20.4221 -1.4539,32.64 -1.937,17.3611 -7.1539,38.4643 -11.6675,47.1976 -5.2932,10.2416 -15.8318,17.0533 -29.4237,19.0181 -4.3014,0.6218 -9.8354,0.8215 -13.9193,0.5023 z m 237.44,-52.6781 c -16.2903,-2.0675 -31.5708,-10.5209 -47.0449,-26.0257 -8.3486,-8.3653 -15.477,-17.5111 -22.4856,-28.8499 l -2.0683,-3.346 3.8548,-2.7091 c 30.2171,-21.2367 58.1839,-46.9656 78.8875,-72.5753 18.2797,-22.6114 32.8381,-47.0039 42.8949,-71.8704 1.9217,-4.7514 2.2816,-5.4804 2.2816,-4.6208 0,0.2582 0.9428,6.2222 2.095,13.2534 8.1204,49.5517 9.8657,64.2377 10.2849,86.5439 0.7764,41.3099 -8.3015,71.764 -28.5635,95.8234 -2.032,2.4128 -3.2045,3.455 -5.8964,5.2412 -6.1638,4.0898 -12.9175,7.0002 -19.4692,8.3898 -3.0255,0.6417 -12.014,1.0954 -14.7708,0.7455 z M 1624,2106.414 c -22.4474,-2.9217 -42.7102,-15.8752 -66.0966,-42.254 -1.4043,-1.584 -4.3799,-5.0603 -6.6124,-7.7251 l -4.0592,-4.8451 1.1841,-0.3175 c 5.15,-1.3808 27.3614,-8.1333 32.3344,-9.8299 16.4184,-5.6016 28.1216,-12.1216 36.5502,-20.3628 4.6305,-4.5276 9.2306,-10.8792 14.39,-19.8692 6.3083,-10.9921 10.1851,-23.7563 11.885,-39.1304 0.5546,-5.0166 0.56,-24.0044 0.01,-30.24 -0.2257,-2.552 -0.7722,-7.736 -1.2144,-11.52 -0.7417,-6.346 -1.3515,-10.6691 -4.9424,-35.04 -1.2728,-8.6381 -2.9893,-22.8645 -2.7836,-23.0702 0.2818,-0.2818 6.2802,4.9079 10.1797,8.8072 8.659,8.6585 14.7423,17.4636 21.1292,30.583 8.0153,16.4643 11.3088,26.9473 24.129,76.8 2.9932,11.6395 4.6345,25.0099 4.6372,37.7761 0.01,33.7897 -11.0333,61.9368 -30.395,77.4899 -6.1234,4.9189 -13.6771,9.0167 -21.4437,11.6329 l -4,1.3474 -5.76,0.1025 c -3.6228,0.064 -7.0066,-0.06 -9.12,-0.3348 z m 414.88,-497.4852 c -21.5821,-2.6167 -39.3025,-13.95 -55.206,-35.3077 -6.6574,-8.9406 -11.6276,-17.2881 -18.8753,-31.7011 -4.8034,-9.5523 -7.5512,-15.5682 -19.2204,-42.08 -1.9754,-4.488 -4.7246,-10.5939 -6.1094,-13.5688 -1.3849,-2.9748 -2.4799,-5.4357 -2.4334,-5.4686 0.047,-0.033 2.3165,-1.6193 5.0445,-3.5253 14.2457,-9.9534 27.3481,-20.1134 40.7952,-31.6337 18.463,-15.8175 40.4678,-37.8323 56.5847,-56.6104 44.4064,-51.7387 78.3522,-111.1443 99.774,-174.6061 15.1012,-44.7371 23.3179,-88.8458 25.28,-135.7071 0.4065,-9.707 0.2117,-33.9559 -0.3406,-42.4 -1.1702,-17.8943 -3.0019,-34.4141 -5.3301,-48.07273 -0.2817,-1.65269 -0.4551,-3.06194 -0.3854,-3.13168 0.07,-0.0697 1.4404,1.99073 3.0459,4.57882 14.9024,24.02279 26.5961,51.47789 36.2142,85.02559 5.9717,20.8291 10.1495,38.913 17.9643,77.76 2.2659,11.264 4.9141,24.368 5.8848,29.12 1.6241,7.9506 5.3517,31.6314 8.4875,53.92 4.0629,28.8785 6.0938,49.2175 7.0933,71.04 0.4741,10.3504 0.204,34.6038 -0.4811,43.2 -2.5,31.3674 -8.7228,57.3286 -19.5008,81.3561 -3.5758,7.9717 -3.2598,7.3735 -17.9674,34.0039 -12.9835,23.5088 -21.8953,38.4942 -31.305,52.64 -26.4434,39.7532 -52.6367,65.212 -82.8013,80.4796 -9.5736,4.8456 -22.2144,9.6292 -27.4922,10.4036 -3.2701,0.4798 -15.5702,0.6674 -18.72,0.2856 z"
         id="path4" />
      <path
         style="fill:#542456"
         d="m 1167.4888,2125.44 c 0,-2.728 0.049,-3.844 0.1091,-2.48 0.06,1.364 0.06,3.596 0,4.96 -0.06,1.364 -0.1091,0.248 -0.1091,-2.48 z M 526.54738,1433.6 c 0,-8.008 0.0416,-11.284 0.0923,-7.28 0.0508,4.004 0.0508,10.556 0,14.56 -0.0508,4.004 -0.0923,0.728 -0.0923,-7.28 z m 102.07935,-3.68 c 7e-5,-7.568 0.0419,-10.6182 0.093,-6.7783 0.0511,3.8399 0.051,10.0319 -1.4e-4,13.76 -0.0512,3.7281 -0.0929,0.5863 -0.0929,-6.9817 z m 1182.07557,-2.56 c -10e-5,-5.456 0.043,-7.733 0.097,-5.0599 0.053,2.673 0.054,7.137 2e-4,9.92 -0.053,2.7829 -0.097,0.5959 -0.097,-4.8601 z m -659.5247,-5.92 c 0,-4.136 0.046,-5.828 0.1014,-3.76 0.056,2.068 0.056,5.452 0,7.52 -0.056,2.068 -0.1014,0.376 -0.1014,-3.76 z m 1185.2734,-54.56 c -4e-4,-2.992 0.048,-4.259 0.1069,-2.8157 0.059,1.4434 0.059,3.8914 6e-4,5.44 -0.059,1.5487 -0.1071,0.3677 -0.1075,-2.6243 z m 7e-4,-17.44 c 0,-3.08 0.048,-4.34 0.1066,-2.8 0.059,1.54 0.059,4.06 0,5.6 -0.059,1.54 -0.1066,0.28 -0.1066,-2.8 z M 645.12001,1020.64 c 2.54745,-2.552 4.70373,-4.64 4.79173,-4.64 0.088,0 -1.92428,2.088 -4.47173,4.64 -2.54744,2.552 -4.70372,4.64 -4.79172,4.64 -0.088,0 1.92428,-2.088 4.47172,-4.64 z M 1981.28,701.44002 c -2.6356,-2.64 -4.72,-4.8 -4.632,-4.8 0.088,0 2.3164,2.16 4.952,4.8 2.6356,2.64 4.72,4.8 4.632,4.8 -0.088,0 -2.3164,-2.16 -4.952,-4.8 z"
         id="path3" />
      <path
         style="fill:#360738"
         d="m 1109.5533,2324.1641 c -39.2658,-2.1092 -76.8217,-16.8613 -108.1133,-42.4671 -9.26799,-7.584 -28.62353,-26.3255 -38.10577,-36.897 -32.07511,-35.7594 -57.33794,-76.8935 -76.49249,-124.5485 -19.54105,-48.6165 -31.96305,-103.7107 -35.62661,-158.0115 -0.71684,-10.6249 -0.67008,-10.2399 -1.24384,-10.2401 -1.03892,-2e-4 -14.98382,-1.6362 -19.24221,-2.2574 -44.75789,-6.5298 -87.07559,-21.4012 -124.00906,-43.5796 -15.15768,-9.1021 -31.83188,-21.3561 -44.48001,-32.6886 -5.3412,-4.7856 -16.0846,-15.4617 -20.48896,-20.3606 -14.83235,-16.4976 -26.28013,-32.7483 -37.41603,-53.1137 -4.28709,-7.8402 -12.98052,-25.1273 -16.65555,-33.12 -34.78676,-75.6559 -54.17788,-163.0275 -59.51499,-268.16 -1.02818,-20.2535 -1.18508,-26.8369 -1.35013,-56.6527 -0.22136,-39.9856 0.41683,-66.127 2.63631,-107.9873 1.18685,-22.3845 3.83936,-63.1859 4.79515,-73.76 5.31917,-58.8466 24.19518,-116.6644 54.63873,-167.36 11.13017,-18.5343 25.80262,-38.708 39.09722,-53.7561 1.24204,-1.4059 2.76225,-3.1278 3.37825,-3.8264 6.25008,-7.0889 21.09752,-21.9429 28.8,-28.8128 5.01829,-4.4759 15.89398,-13.58408 16.49591,-13.81506 0.25859,-0.0992 0.4356,-2.57352 0.58702,-8.20585 0.64066,-23.83015 3.05892,-45.59727 7.43723,-66.94377 17.25129,-84.10879 62.82412,-167.76274 141.35947,-259.48088 22.61068,-26.40606 49.32004,-55.16528 68.841,-74.12433 26.62912,-25.8626 57.34492,-50.63952 89.43938,-72.14635 7.77552,-5.21045 9.62578,-6.41615 16.63998,-10.84323 75.419,-47.60121 163.8272,-82.29978 258.56,-101.48005 80.6497,-16.32888 164.1023,-21.32963 248.16,-14.87054 86.3518,6.63537 170.9412,25.13084 249.44,54.54006 37.2007,13.93705 74.4156,30.909 106.88,48.74297 2.728,1.49859 5.752,3.15794 6.72,3.68745 24.3426,13.3156 56.2098,33.78757 81.44,52.31828 43.2038,31.73163 88.1128,72.75549 127.2369,116.22946 83.7595,93.07198 150.3941,206.96711 194.7914,332.94716 33.1089,93.94848 53.4232,193.02388 60.1994,293.59998 2.2081,32.7746 2.6333,86.3963 0.9655,121.76 -6.1597,130.6059 -35.2283,237.6405 -88.4271,325.6 -6.1311,10.1372 -14.2137,22.4709 -19.7123,30.08 -22.0935,30.5737 -32.5755,43.2677 -52.0138,62.9903 -24.6344,24.9949 -50.6408,46.1488 -80.32,65.3334 -73.3021,47.3825 -160.4757,76.3037 -250.72,83.18 -14.3065,1.0901 -19.7258,1.317 -36.2662,1.5182 l -15.9463,0.1939 0.2663,14.2721 c 0.6266,33.5863 -0.035,51.6734 -2.4843,67.8721 -2.9931,19.7992 -7.7313,34.448 -17.3519,53.6455 -20.2315,40.3711 -56.937,72.4646 -98.1531,85.8203 -16.941,5.4895 -32.5519,7.5389 -51.8245,6.8035 -9.5943,-0.3661 -13.7072,-0.7875 -20.8,-2.131 -26.7064,-5.0591 -52.005,-17.4048 -89.3876,-43.6215 -4.5461,-3.1882 -8.3694,-5.7968 -8.4962,-5.7968 -0.1269,0 -0.9317,1.692 -1.7886,3.76 -10.4261,25.1631 -22.6405,45.8793 -36.707,62.2568 -11.3174,13.1769 -24.6868,23.9511 -38.7942,31.2639 -4.6993,2.436 -5.392,2.7449 -14.5956,6.5093 -16.3418,6.6841 -29.8865,9.8986 -46.8708,11.1236 -6.2433,0.4503 -19.5567,0.1925 -26.08,-0.5051 -28.6908,-3.0679 -58.4071,-13.6016 -84.2802,-29.875 -2.9609,-1.8624 -3.856,-2.2912 -4.0528,-1.9418 -0.5943,1.055 -9.9993,14.6824 -13.7811,19.9683 -22.4691,31.4052 -42.3211,49.0839 -65.5659,58.388 -16.2208,6.4926 -40.9224,10.0893 -61.6467,8.9761 z m 16.2132,-101.0923 c 11.2432,-1.9388 19.9375,-6.8626 25.6297,-14.5146 2.5326,-3.4046 4.1557,-6.788 6.0232,-12.5557 9.1929,-28.3922 11.8597,-58.1645 8.9861,-100.3215 -0.3539,-5.192 -0.715,-10.16 -0.8024,-11.04 -0.087,-0.88 -0.3837,-4.12 -0.6583,-7.2 -0.2747,-3.08 -1.2135,-12.728 -2.0863,-21.44 -3.5258,-35.1954 -4.62,-50.0323 -3.9027,-52.9198 0.6389,-2.5719 4.6682,-10.3213 6.9315,-13.3311 2.8752,-3.8236 8.0991,-8.7421 12.1911,-11.4783 20.8644,-13.9518 48.0529,-12.3366 64.1616,3.8115 4.6067,4.6179 6.3549,7.4198 8.6697,13.8952 6.4012,17.9066 10.0327,33.5643 16.9266,72.9825 3.1211,17.8455 5.4039,29.7362 7.358,38.3268 1.3587,5.9731 1.4625,6.1916 6.6727,14.0467 12.4275,18.7366 27.3745,33.4052 42.7236,41.928 5.796,3.2183 12.3262,5.6796 18.6744,7.0388 2.9572,0.6332 4.3771,0.7397 9.855,0.7397 5.496,0 6.8933,-0.1055 9.8917,-0.7472 9.9067,-2.1201 20.2186,-7.5771 25.0006,-13.2302 16.1769,-19.1237 24.7969,-40.7427 28.0443,-70.3349 0.5229,-4.7655 0.6702,-8.5313 0.751,-19.2077 0.105,-13.8885 -0.048,-17.8859 -1.1357,-29.76 -1.4266,-15.5653 -2.898,-26.0915 -7.9847,-57.12 -1.2118,-7.392 -2.4516,-14.9812 -2.7551,-16.8648 -0.5249,-3.2578 -0.5242,-3.5701 0.014,-6.4 3.2995,-17.338 15.26,-33.545 30.4874,-41.3118 7.3466,-3.7472 12.9879,-5.1406 20.8862,-5.1591 7.8849,-0.018 12.8243,1.201 20.16,4.9771 6.4395,3.3147 8.815,5.4613 13.6103,12.2988 8.5538,12.1965 13.863,24.8977 22.2481,53.2248 9.0229,30.4819 13.9097,42.5914 22.2255,55.075 3.3583,5.0415 6.1308,8.4929 10.4097,12.9589 1.8555,1.9366 4.3755,4.7437 5.6,6.2379 11.4388,13.9578 24.109,26.5171 34.6096,34.3065 9.1603,6.7952 19.2882,11.901 28.7519,14.4947 6.6596,1.8252 9.9703,2.2339 18.0649,2.2299 h 7.2 l 4.3146,-1.5361 c 5.1092,-1.819 10.3561,-4.2669 13.9959,-6.5296 23.8877,-14.8502 37.209,-44.3806 37.2064,-82.4786 -10e-4,-15.0562 -1.5459,-26.4549 -5.7465,-42.4 -1.0432,-3.96 -2.9937,-11.448 -4.3344,-16.64 -3.1884,-12.347 -5.2032,-19.5933 -7.5182,-27.04 -7.2484,-23.3157 -16.0488,-40.73 -27.0704,-53.5675 -3.5031,-4.0802 -9.2299,-9.6725 -12.8524,-12.5506 l -2.6451,-2.1014 -4.2349,-0.3929 c -34.9062,-3.2387 -72.7992,-11.9211 -103.9895,-23.8272 -7.1885,-2.744 -27.1829,-11.2272 -35.2611,-14.9605 -21.4492,-9.9127 -33.4412,-20.0803 -39.9865,-33.9034 -1.5675,-3.3103 -3.3979,-8.3568 -3.3979,-9.3682 0,-0.3056 3.1557,-0.4921 13.52,-0.7991 62.9532,-1.8645 102.6233,-6.3297 138.32,-15.569 13.0611,-3.3806 42.9027,-12.0758 54.56,-15.8977 44.9178,-14.7263 72.4477,-32.6148 89.6404,-58.2471 3.8488,-5.738 11.508,-19.5186 17.3938,-31.2954 37.8283,-75.6883 54.5369,-168.8968 48.4722,-270.4 -1.4569,-24.3822 -2.9756,-40.9886 -7.3455,-80.32 -5.6282,-50.6557 -6.7986,-63.8933 -7.7096,-87.2 -0.5964,-15.2553 -0.089,-41.6657 1.0104,-52.6013 0.9404,-9.3539 5.1645,-20.3027 11.9887,-31.0745 2.5343,-4.0002 9.8843,-14.0029 12.1922,-16.5926 l 1.2374,-1.3884 2.8397,8.1084 c 12.5162,35.7391 22.2371,68.2478 42.2879,141.4193 20.9617,76.4953 30.5243,108.4201 43.5074,145.2491 9.0243,25.5992 20.0744,53.0659 28.3499,70.4678 3.1665,6.6587 5.99,12.9644 14.2266,31.7722 10.8837,24.8526 17.8924,38.5277 26.2407,51.2 5.8736,8.9159 10.7028,14.8454 17.4687,21.4488 10.4607,10.2094 20.8764,16.2937 33.3991,19.5098 6.615,1.6989 11.5727,2.1979 19.68,1.9809 8.8028,-0.2357 10.3928,-0.4963 17.1692,-2.8142 34.8226,-11.9113 65.1256,-36.7818 93.9228,-77.0853 12.2725,-17.1762 24.2216,-36.7563 40.4239,-66.24 2.0795,-3.784 5.298,-9.616 7.1523,-12.96 4.3237,-7.797 8.4363,-16.0453 10.9294,-21.92 14.9594,-35.2501 20.7857,-74.0998 18.5482,-123.68 -0.1747,-3.872 -0.3832,-7.904 -0.4632,-8.96 -0.08,-1.056 -0.2206,-3 -0.3124,-4.32 -1.1742,-16.8882 -3.5827,-37.8742 -7.231,-63.0054 -1.2035,-8.2902 -1.8577,-12.6409 -4.6486,-30.9146 -1.0922,-7.152 -8.4288,-44.2392 -13.6005,-68.7525 -5.852,-27.738 -10.4208,-45.7831 -16.6616,-65.8075 -8.545,-27.4172 -20.0962,-53.1875 -33.1174,-73.88323 l -2.6948,-4.28325 -0.9684,-4.67675 c -3.5402,-17.09643 -8.8414,-33.32509 -15.9531,-48.83675 -4.0444,-8.82134 -16.4413,-33.67753 -21.1469,-42.4 -31.3099,-58.0379 -68.2318,-110.50595 -111.4663,-158.4 -15.0149,-16.63315 -35.2989,-37.08842 -51.5616,-51.99711 -23.1551,-21.22733 -52.7854,-45.08981 -75.8839,-61.11247 -30.6077,-21.23156 -59.5599,-38.52726 -89.8832,-53.69509 -39.5386,-19.77742 -78.0392,-34.52294 -122.0729,-46.75324 -20.9835,-5.82814 -32.6225,-8.78707 -48.48,-12.32478 -51.3862,-11.464 -101.844,-17.92631 -155.2,-19.87706 -11.2638,-0.41181 -44.649,-0.40948 -56.0329,0.004 -91.6488,3.32816 -178.0599,21.21557 -258.2515,53.45899 -22.1756,8.91638 -48.5382,21.15733 -61.0756,28.35923 -47.1222,27.0687 -89.7593,58.70887 -129.95423,96.43663 -11.33383,10.63816 -30.60991,30.35015 -41.44374,42.38098 -36.44221,40.46858 -68.96348,86.07481 -95.15177,133.43613 -8.52595,15.41913 -20.02628,38.55029 -27.09901,54.50557 -3.8306,8.64138 -9.87123,23.0471 -9.87123,23.54094 0,0.0617 2.89698,-1.01867 6.43774,-2.40079 40.1624,-15.67723 82.09242,-25.52032 123.16226,-28.91239 16.17696,-1.3361 34.01074,-1.75569 47.84,-1.12556 4.928,0.22455 12.488,0.44499 16.8,0.48987 8.3492,0.0869 11.09667,0.40918 16.42175,1.92624 9.66543,2.75359 19.37723,8.71074 27.17623,16.66971 l 2.158,2.20225 -7.278,3.01148 c -31.19249,12.90684 -63.36559,28.85015 -95.27798,47.21479 -58.29422,33.54659 -117.11835,76.97616 -173.12,127.81356 -17.22112,15.6331 -27.90155,25.9098 -49.58233,47.7082 -11.72626,11.7899 -13.38218,13.5531 -17.88196,19.04 -29.14975,35.5449 -45.79413,81.1461 -49.1726,134.72 -0.17758,2.816 -0.68044,10.448 -1.11746,16.96 -6.81929,101.6134 -6.47659,176.1879 1.12496,244.8 5.60771,50.6156 16.00034,99.8767 29.73838,140.96 16.67833,49.8763 43.73555,92.0618 76.61454,119.4516 22.00196,18.3287 46.2555,30.0084 72.51647,34.9214 44.56378,8.3372 91.70031,10.2591 145.28,5.9235 38.83107,-3.1421 83.07798,-9.9771 137.58008,-21.2523 15.0854,-3.1209 26.7767,-5.6312 52.3069,-11.2314 11.5978,-2.5441 21.1587,-4.5538 21.2464,-4.4661 0.2279,0.2279 -2.5444,9.5248 -4.9446,16.5818 -4.3273,12.723 -9.2339,22.2856 -15.1242,29.4756 -2.5234,3.0802 -7.3741,7.7104 -10.1046,9.6453 -1.232,0.873 -4.112,3.0448 -6.4,4.8262 -32.7835,25.5243 -75.2285,48.2201 -130.0872,69.5592 -15.54056,6.045 -48.91297,18.2452 -49.90776,18.2452 -0.42668,0 -0.41104,0.7178 0.16039,7.36 4.96632,57.7281 22.53003,114.4247 52.23067,168.6034 2.6365,4.8094 2.9896,5.2724 15.2489,20.0007 14.7494,17.7196 17.9711,21.45 25.1801,29.1559 13.5357,14.4688 26.7892,25.1872 40.13,32.4539 6.0489,3.2949 13.4253,5.5481 20.9649,6.404 1.672,0.1898 3.544,0.4038 4.16,0.4756 2.5192,0.2937 10.9058,-0.1381 14.4065,-0.7417 z M 1280.64,1834.3695 c -4.6687,-0.547 -8.8486,-1.2537 -12.0752,-2.0416 -24.5166,-5.9867 -47.9762,-22.9622 -74.4411,-53.8661 -9.4404,-11.0238 -15.5369,-20.0329 -21.1887,-31.3118 -8.8731,-17.7071 -14.1986,-36.7751 -16.52,-59.15 -0.5578,-5.3764 -0.5553,-26.2323 0,-32 4.8683,-50.2193 27.8509,-93.0829 63.6739,-118.7542 3.4084,-2.4426 5.9535,-3.4432 12.2659,-4.8225 2.8643,-0.626 4.2462,-0.7258 10.0414,-0.7258 5.7952,0 7.1825,0.1002 10.08,0.7285 20.5051,4.4463 39.5452,19.2735 60.2693,46.934 6.5423,8.7321 18.7504,27.4536 26.2923,40.32 28.4205,48.4855 38.4524,90.4835 31.0334,129.92 -0.4304,2.288 -1.0105,5.96 -1.2892,8.16 -1.7293,13.6529 -5.5856,26.5795 -11.5032,38.56 -10.1394,20.528 -23.9783,32.6675 -41.4426,36.3535 -2.704,0.5707 -4.6095,0.7254 -9.76,0.7923 -3.52,0.046 -7.408,0.2468 -8.64,0.4466 -2.2465,0.3644 -14.6994,0.7032 -16.8,0.4571 z m -320.95998,-98.8883 c -19.47897,-1.758 -33.91917,-5.6913 -49.28,-13.423 -7.76287,-3.9073 -14.37026,-8.1727 -20.48,-13.2208 -1.496,-1.236 -5.36822,-4.3021 -8.60493,-6.8136 -13.82958,-10.7309 -21.62491,-17.6278 -34.44347,-30.474 -14.59447,-14.6259 -25.00066,-26.8571 -36.5662,-42.9791 -58.0506,-80.9207 -84.32412,-188.6126 -72.198,-295.9307 3.44857,-30.5204 9.59899,-58.6784 19.39614,-88.8 11.84761,-36.4257 30.08382,-67.9236 54.91798,-94.8553 15.50967,-16.8196 34.71254,-31.5215 54.61848,-41.8164 23.14826,-11.9717 44.63278,-17.0915 69.28,-16.5094 37.05441,0.8752 73.63768,15.2079 104.81158,41.0636 7.5188,6.2361 19.3983,18.4971 28.1728,29.0775 31.2034,37.6257 54.0199,84.2666 67.4698,137.92 7.2759,29.0243 11.5027,57.7161 13.6476,92.64 0.5355,8.7183 0.747,42.3849 0.3267,52 -0.2,4.576 -0.5038,12.352 -0.6751,17.28 -1.607,46.2372 -6.9505,81.2451 -17.9288,117.4597 -5.085,16.774 -11.1366,32.0429 -19.0165,47.9803 -12.8261,25.9413 -27.2014,46.4857 -45.7628,65.4015 -15.5517,15.8485 -26.1487,23.9706 -40.3253,30.907 -13.3361,6.5253 -26.9732,10.4861 -43.04669,12.5027 -3.8256,0.48 -20.93267,0.8951 -24.31329,0.59 z m -37.92,-329.873 c 11.30284,-1.9531 20.98283,-7.1768 29.45155,-15.8933 4.00313,-4.1203 5.53922,-6.0484 8.75772,-10.9928 12.72242,-19.5446 17.39234,-48.8073 11.41397,-71.5221 -0.44006,-1.672 -1.23836,-4.696 -1.77401,-6.72 -3.72667,-14.0815 -10.0878,-25.4004 -20.25204,-36.036 -8.09357,-8.4688 -19.52766,-15.9894 -29.55457,-19.439 -20.47622,-7.0444 -40.71311,-2.4796 -54.67,12.332 -10.14729,10.7686 -17.09262,24.5089 -20.45179,40.4608 -1.69468,8.0477 -1.9441,10.7916 -1.9454,21.4022 -10e-4,10.8318 0.27844,13.8354 2.08385,22.3727 7.47094,35.3282 30.98801,59.9742 61.42072,64.3691 3.72854,0.5385 11.43145,0.3729 15.52,-0.3336 z M 1535.84,1661.2407 c -37.5215,-2.0549 -74.2971,-17.0957 -105.12,-42.9927 -5.3486,-4.4939 -17.7052,-16.8301 -21.8039,-21.768 -6.6481,-8.0092 -11.767,-15.2535 -19.22,-27.2 -34.9265,-55.984 -56.9687,-120.4914 -64.4036,-188.48 -1.9628,-17.9482 -2.5548,-29.5916 -2.5463,-50.08 0.01,-20.241 0.6172,-32.0196 2.5557,-49.44 7.8797,-70.8097 31.3928,-135.7787 65.6049,-181.2728 12.003,-15.9611 26.1479,-30.2976 40.4882,-41.0367 15.0412,-11.264 31.5809,-19.9052 48.765,-25.4773 6.3327,-2.0534 17.0505,-4.8529 22.88,-5.9763 26.5512,-5.1167 53.9053,-2.2547 80.96,8.4707 5.8631,2.3244 16.7586,7.6118 22.7523,11.0414 19.9592,11.4208 39.1464,27.6945 54.9163,46.5777 7.3634,8.8171 13.7699,17.9769 20.8112,29.7555 31.0208,51.8906 49.3275,111.5172 53.9862,175.8378 1.5788,21.7969 1.4658,46.0172 -0.3195,68.48 -3.2812,41.2858 -12.446,83.5128 -26.5306,122.24 -2.7021,7.4298 -19.9457,50.6644 -23.8131,59.7061 -20.8627,48.776 -40.5205,74.8302 -68.8909,91.3072 -4.3338,2.517 -16.7605,8.4075 -22.5473,10.6878 -11.9388,4.7046 -24.1998,7.6658 -37.3318,9.0162 -4.727,0.4861 -16.9694,0.8347 -21.1928,0.6034 z m -6.9393,-282.8712 c 12.7542,-11.9012 20.3479,-27.9626 22.9822,-48.6095 0.7057,-5.5317 0.8037,-20.6195 0.1735,-26.72 -1.6155,-15.6363 -4.9436,-30.5144 -10.4354,-46.6512 -4.7708,-14.0181 -5.8759,-16.6449 -8.9143,-21.1888 -2.0633,-3.0856 -8.0211,-9.0434 -11.1067,-11.1066 -6.8911,-4.6079 -14.2943,-6.7267 -20.6409,-5.9075 -9.4431,1.219 -15.1762,6.2746 -21.2903,18.7741 -4.3311,8.8544 -6.6566,18.1344 -7.6984,30.72 -0.4733,5.7172 -0.1974,23.568 0.4822,31.2 1.7847,20.0426 2.1946,22.8583 4.822,33.12 4.6608,18.204 11.0131,30.8146 19.6051,38.9198 7.2485,6.8379 15.3384,10.0792 25.3768,10.1677 l 3.6965,0.032 z"
         id="path2" />
    </g>
  </g>
</svg>
