<svg xmlns="http://www.w3.org/2000/svg" xmlns:xlink="http://www.w3.org/1999/xlink" style="display:none">

    <symbol id="google" viewBox="0 0 692 692">
        <g>
            <path
                style="display:inline;fill:#f9ba05"
                d="M 95.022299,468.25 C 85.451813,447.98495 78.124523,427.15273 73.654788,407.5 59.857672,346.83623 67.505553,278.75766 94.294586,223.77225 l 2.303372,-4.72775 46.110552,35.61941 46.11056,35.61942 -1.43264,4.60833 c -5.78893,18.62112 -7.87383,35.65771 -7.04997,57.60834 0.59641,15.89032 3.38899,33.08023 7.00866,43.14223 l 1.49012,4.14224 -6.16762,4.95344 C 170.34132,414.63762 97.21752,471 96.700072,471 c -0.208473,0 -0.963471,-1.2375 -1.677773,-2.75 z"
            />
            <path
                style="display:inline;fill:#4184f2"
                d="m 529.7848,555.22038 c -1.80664,-1.52879 -5.88115,-4.79129 -9.05447,-7.25 -3.17332,-2.45871 -7.50345,-5.82038 -9.62251,-7.47038 -2.11906,-1.65 -9.6477,-7.48411 -16.73033,-12.9647 C 487.29487,522.05472 473.4,511.30049 463.5,503.63702 c -9.9,-7.66347 -18.12443,-14.02878 -18.27651,-14.14514 -0.15208,-0.11636 2.32292,-2.12378 5.5,-4.46093 8.83691,-6.50069 24.02273,-22.58039 30.04112,-31.8094 9.0657,-13.90199 17.3632,-33.80407 19.79166,-47.47155 l 0.66631,-3.75 h -76.61983 -76.61983 l 0.25854,-54.75 0.25854,-54.75 131.44628,-0.25372 c 72.29545,-0.13955 131.77928,0.0854 132.18628,0.5 0.407,0.41455 1.74303,7.72872 2.96896,16.25372 3.16094,21.98093 3.17953,64.54784 0.0375,86 -8.69261,59.34968 -28.49789,105.3422 -61.9389,143.83674 C 545.1451,548.10908 535.22396,558 533.97837,558 c -0.49983,0 -2.38694,-1.25083 -4.19357,-2.77962 z"
            />
            <path
                style="fill:#e94234"
                d="M 142.967,254.84028 C 110.68197,229.8742 97.564927,219.17037 97.723944,217.9208 98.023489,215.56696 107.78393,198.6637 115.28982,187.5 134.74554,158.563 161.96293,131.36197 190.5,112.33503 227.32956,87.779114 264.30385,73.510273 308.49448,66.799491 328.97525,63.689284 368.33071,63.737271 389,66.897651 443.95318,75.300121 493.26629,98.2429 531.29872,133.10171 l 4.79873,4.39829 -39.4524,39.39895 -39.45239,39.39894 -7.34633,-6.00099 C 427.44232,191.99574 407.29018,182.46935 378,176.33345 c -13.55908,-2.84045 -46.89522,-2.54072 -61.5,0.55295 -45.09951,9.55325 -82.74223,35.21665 -108.07193,73.67941 -6.17737,9.38024 -14.03239,24.56006 -17.43037,33.68419 -1.17777,3.1625 -2.23642,5.75 -2.35255,5.75 -0.11613,0 -20.6713,-15.82187 -45.67815,-35.15972 z"
            />
            <path
                style="display:inline;fill:#33a752"
                d="m 339,626.27397 c -33.46289,-1.37521 -67.49805,-8.61322 -97.25792,-20.68314 -12.75572,-5.17343 -32.534,-15.19461 -38.89645,-19.70791 C 201.38573,584.84731 199.92924,584 199.60899,584 198.66083,584 183.14387,573.15687 174.30201,566.31568 162.99977,557.57082 149.76962,545.00425 136.06867,530 124.02081,516.80608 97,476.40024 97,471.57827 c 0,-0.49424 2.6125,-2.53505 54.5,-42.5737 15.95,-12.30771 30.77924,-23.87791 32.95388,-25.71155 l 3.95387,-3.3339 1.26069,2.27044 c 0.69338,1.24874 1.27664,2.82696 1.29612,3.50716 0.0684,2.38666 10.76631,23.95807 15.53365,31.32223 28.00339,43.2571 69.09146,70.20496 119.00179,78.04803 10.41617,1.63684 35.44819,1.65726 47.5,0.0388 24.62095,-3.30649 47.10843,-10.90487 65.71526,-22.20481 l 6.21526,-3.77453 11.78474,9.18602 c 6.48161,5.05232 20.50368,15.92738 31.16016,24.1668 10.65649,8.23943 21.10014,16.33078 23.20813,17.98078 11.57561,9.06067 18.67768,14.63244 20.7774,16.30045 l 2.36095,1.87553 -8.86095,7.44913 c -18.46149,15.52 -43.05241,30.37072 -64.36095,38.86826 -3.025,1.20633 -6.625,2.64989 -8,3.20791 -9.55238,3.87667 -34.38685,10.77136 -46.31283,12.85764 -21.07122,3.68611 -50.22828,5.93255 -67.68717,5.21505 z"
            />
        </g>
    </symbol>
    <symbol id="calavera" viewBox="0 0 2666.5601 2666.5601">
        <g>
            <path
                style="fill:#ceadcf"
                d="m 1643.9688,1947.84 c 0,-2.728 0.049,-3.844 0.1091,-2.48 0.06,1.364 0.06,3.596 0,4.96 -0.06,1.364 -0.1091,0.248 -0.1091,-2.48 z M 2005.76,1424.557 c 0,-0.046 2.844,-2.8897 6.32,-6.32 l 6.32,-6.237 -6.2369,6.32 c -5.7949,5.8721 -6.4031,6.4645 -6.4031,6.237 z M 2164.6164,1061.6 c 3e-4,-3.872 0.046,-5.412 0.1027,-3.4222 0.056,1.9897 0.056,5.1577 -4e-4,7.04 -0.056,1.8822 -0.1025,0.2542 -0.1023,-3.6178 z"
            />
            <path
                style="fill:#ab90ac"
                d="m 1798.96,1977.3616 c 1.628,-0.058 4.292,-0.058 5.92,0 1.628,0.058 0.296,0.1056 -2.96,0.1056 -3.256,0 -4.588,-0.048 -2.96,-0.1056 z M 1737.7288,1331.2 c 0,-2.728 0.049,-3.844 0.1091,-2.48 0.06,1.364 0.06,3.596 0,4.96 -0.06,1.364 -0.1091,0.248 -0.1091,-2.48 z m -185.2834,-15.04 c 0,-2.376 0.05,-3.348 0.1119,-2.16 0.062,1.188 0.062,3.132 0,4.32 -0.062,1.188 -0.1119,0.216 -0.1119,-2.16 z m 241.611,-114.4 c 2e-4,-3.872 0.047,-5.412 0.1027,-3.4222 0.056,1.9897 0.056,5.1577 -5e-4,7.04 -0.056,1.8822 -0.1024,0.2542 -0.1022,-3.6178 z"
            />
            <path
                style="fill:#906692"
                d="m 2046.7173,625.68001 -6.8773,-6.96 6.96,6.87721 c 3.828,3.78247 6.96,6.91447 6.96,6.96 0,0.22717 -0.6526,-0.41012 -7.0427,-6.87721 z"
            />
            <path
                style="fill:#841d89"
                d="m 1110.72,2223.678 c -8.1844,-0.6396 -16.279,-2.698 -22.1307,-5.6278 -12.3935,-6.2049 -25.0932,-15.9748 -38.5432,-29.6515 -8.1642,-8.3017 -12.3756,-13.0844 -27.7098,-31.4692 -14.3113,-17.1584 -13.4765,-16.1402 -13.3327,-16.2615 0.064,-0.054 6.4524,-3.4502 14.1964,-7.5472 28.3607,-15.0039 42.6696,-23.2914 58.24,-33.7313 39.381,-26.405 63.5858,-55.2218 75.1848,-89.5107 2.0168,-5.9622 1.8744,-6.1541 2.4064,3.2412 0.5117,9.0352 1.351,18.6176 3.6858,42.08 4.057,40.769 4.4476,46.8112 4.4674,69.12 0.016,18.0272 -0.091,20.4221 -1.4539,32.64 -1.937,17.3611 -7.1539,38.4643 -11.6675,47.1976 -5.2932,10.2416 -15.8318,17.0533 -29.4237,19.0181 -4.3014,0.6218 -9.8354,0.8215 -13.9193,0.5023 z m 237.44,-52.6781 c -16.2903,-2.0675 -31.5708,-10.5209 -47.0449,-26.0257 -8.3486,-8.3653 -15.477,-17.5111 -22.4856,-28.8499 l -2.0683,-3.346 3.8548,-2.7091 c 30.2171,-21.2367 58.1839,-46.9656 78.8875,-72.5753 18.2797,-22.6114 32.8381,-47.0039 42.8949,-71.8704 1.9217,-4.7514 2.2816,-5.4804 2.2816,-4.6208 0,0.2582 0.9428,6.2222 2.095,13.2534 8.1204,49.5517 9.8657,64.2377 10.2849,86.5439 0.7764,41.3099 -8.3015,71.764 -28.5635,95.8234 -2.032,2.4128 -3.2045,3.455 -5.8964,5.2412 -6.1638,4.0898 -12.9175,7.0002 -19.4692,8.3898 -3.0255,0.6417 -12.014,1.0954 -14.7708,0.7455 z M 1624,2106.414 c -22.4474,-2.9217 -42.7102,-15.8752 -66.0966,-42.254 -1.4043,-1.584 -4.3799,-5.0603 -6.6124,-7.7251 l -4.0592,-4.8451 1.1841,-0.3175 c 5.15,-1.3808 27.3614,-8.1333 32.3344,-9.8299 16.4184,-5.6016 28.1216,-12.1216 36.5502,-20.3628 4.6305,-4.5276 9.2306,-10.8792 14.39,-19.8692 6.3083,-10.9921 10.1851,-23.7563 11.885,-39.1304 0.5546,-5.0166 0.56,-24.0044 0.01,-30.24 -0.2257,-2.552 -0.7722,-7.736 -1.2144,-11.52 -0.7417,-6.346 -1.3515,-10.6691 -4.9424,-35.04 -1.2728,-8.6381 -2.9893,-22.8645 -2.7836,-23.0702 0.2818,-0.2818 6.2802,4.9079 10.1797,8.8072 8.659,8.6585 14.7423,17.4636 21.1292,30.583 8.0153,16.4643 11.3088,26.9473 24.129,76.8 2.9932,11.6395 4.6345,25.0099 4.6372,37.7761 0.01,33.7897 -11.0333,61.9368 -30.395,77.4899 -6.1234,4.9189 -13.6771,9.0167 -21.4437,11.6329 l -4,1.3474 -5.76,0.1025 c -3.6228,0.064 -7.0066,-0.06 -9.12,-0.3348 z m 414.88,-497.4852 c -21.5821,-2.6167 -39.3025,-13.95 -55.206,-35.3077 -6.6574,-8.9406 -11.6276,-17.2881 -18.8753,-31.7011 -4.8034,-9.5523 -7.5512,-15.5682 -19.2204,-42.08 -1.9754,-4.488 -4.7246,-10.5939 -6.1094,-13.5688 -1.3849,-2.9748 -2.4799,-5.4357 -2.4334,-5.4686 0.047,-0.033 2.3165,-1.6193 5.0445,-3.5253 14.2457,-9.9534 27.3481,-20.1134 40.7952,-31.6337 18.463,-15.8175 40.4678,-37.8323 56.5847,-56.6104 44.4064,-51.7387 78.3522,-111.1443 99.774,-174.6061 15.1012,-44.7371 23.3179,-88.8458 25.28,-135.7071 0.4065,-9.707 0.2117,-33.9559 -0.3406,-42.4 -1.1702,-17.8943 -3.0019,-34.4141 -5.3301,-48.07273 -0.2817,-1.65269 -0.4551,-3.06194 -0.3854,-3.13168 0.07,-0.0697 1.4404,1.99073 3.0459,4.57882 14.9024,24.02279 26.5961,51.47789 36.2142,85.02559 5.9717,20.8291 10.1495,38.913 17.9643,77.76 2.2659,11.264 4.9141,24.368 5.8848,29.12 1.6241,7.9506 5.3517,31.6314 8.4875,53.92 4.0629,28.8785 6.0938,49.2175 7.0933,71.04 0.4741,10.3504 0.204,34.6038 -0.4811,43.2 -2.5,31.3674 -8.7228,57.3286 -19.5008,81.3561 -3.5758,7.9717 -3.2598,7.3735 -17.9674,34.0039 -12.9835,23.5088 -21.8953,38.4942 -31.305,52.64 -26.4434,39.7532 -52.6367,65.212 -82.8013,80.4796 -9.5736,4.8456 -22.2144,9.6292 -27.4922,10.4036 -3.2701,0.4798 -15.5702,0.6674 -18.72,0.2856 z"
            />
            <path
                style="fill:#542456"
                d="m 1167.4888,2125.44 c 0,-2.728 0.049,-3.844 0.1091,-2.48 0.06,1.364 0.06,3.596 0,4.96 -0.06,1.364 -0.1091,0.248 -0.1091,-2.48 z M 526.54738,1433.6 c 0,-8.008 0.0416,-11.284 0.0923,-7.28 0.0508,4.004 0.0508,10.556 0,14.56 -0.0508,4.004 -0.0923,0.728 -0.0923,-7.28 z m 102.07935,-3.68 c 7e-5,-7.568 0.0419,-10.6182 0.093,-6.7783 0.0511,3.8399 0.051,10.0319 -1.4e-4,13.76 -0.0512,3.7281 -0.0929,0.5863 -0.0929,-6.9817 z m 1182.07557,-2.56 c -10e-5,-5.456 0.043,-7.733 0.097,-5.0599 0.053,2.673 0.054,7.137 2e-4,9.92 -0.053,2.7829 -0.097,0.5959 -0.097,-4.8601 z m -659.5247,-5.92 c 0,-4.136 0.046,-5.828 0.1014,-3.76 0.056,2.068 0.056,5.452 0,7.52 -0.056,2.068 -0.1014,0.376 -0.1014,-3.76 z m 1185.2734,-54.56 c -4e-4,-2.992 0.048,-4.259 0.1069,-2.8157 0.059,1.4434 0.059,3.8914 6e-4,5.44 -0.059,1.5487 -0.1071,0.3677 -0.1075,-2.6243 z m 7e-4,-17.44 c 0,-3.08 0.048,-4.34 0.1066,-2.8 0.059,1.54 0.059,4.06 0,5.6 -0.059,1.54 -0.1066,0.28 -0.1066,-2.8 z M 645.12001,1020.64 c 2.54745,-2.552 4.70373,-4.64 4.79173,-4.64 0.088,0 -1.92428,2.088 -4.47173,4.64 -2.54744,2.552 -4.70372,4.64 -4.79172,4.64 -0.088,0 1.92428,-2.088 4.47172,-4.64 z M 1981.28,701.44002 c -2.6356,-2.64 -4.72,-4.8 -4.632,-4.8 0.088,0 2.3164,2.16 4.952,4.8 2.6356,2.64 4.72,4.8 4.632,4.8 -0.088,0 -2.3164,-2.16 -4.952,-4.8 z"
            />
            <path
                style="fill:#360738"
                d="m 1109.5533,2324.1641 c -39.2658,-2.1092 -76.8217,-16.8613 -108.1133,-42.4671 -9.26799,-7.584 -28.62353,-26.3255 -38.10577,-36.897 -32.07511,-35.7594 -57.33794,-76.8935 -76.49249,-124.5485 -19.54105,-48.6165 -31.96305,-103.7107 -35.62661,-158.0115 -0.71684,-10.6249 -0.67008,-10.2399 -1.24384,-10.2401 -1.03892,-2e-4 -14.98382,-1.6362 -19.24221,-2.2574 -44.75789,-6.5298 -87.07559,-21.4012 -124.00906,-43.5796 -15.15768,-9.1021 -31.83188,-21.3561 -44.48001,-32.6886 -5.3412,-4.7856 -16.0846,-15.4617 -20.48896,-20.3606 -14.83235,-16.4976 -26.28013,-32.7483 -37.41603,-53.1137 -4.28709,-7.8402 -12.98052,-25.1273 -16.65555,-33.12 -34.78676,-75.6559 -54.17788,-163.0275 -59.51499,-268.16 -1.02818,-20.2535 -1.18508,-26.8369 -1.35013,-56.6527 -0.22136,-39.9856 0.41683,-66.127 2.63631,-107.9873 1.18685,-22.3845 3.83936,-63.1859 4.79515,-73.76 5.31917,-58.8466 24.19518,-116.6644 54.63873,-167.36 11.13017,-18.5343 25.80262,-38.708 39.09722,-53.7561 1.24204,-1.4059 2.76225,-3.1278 3.37825,-3.8264 6.25008,-7.0889 21.09752,-21.9429 28.8,-28.8128 5.01829,-4.4759 15.89398,-13.58408 16.49591,-13.81506 0.25859,-0.0992 0.4356,-2.57352 0.58702,-8.20585 0.64066,-23.83015 3.05892,-45.59727 7.43723,-66.94377 17.25129,-84.10879 62.82412,-167.76274 141.35947,-259.48088 22.61068,-26.40606 49.32004,-55.16528 68.841,-74.12433 26.62912,-25.8626 57.34492,-50.63952 89.43938,-72.14635 7.77552,-5.21045 9.62578,-6.41615 16.63998,-10.84323 75.419,-47.60121 163.8272,-82.29978 258.56,-101.48005 80.6497,-16.32888 164.1023,-21.32963 248.16,-14.87054 86.3518,6.63537 170.9412,25.13084 249.44,54.54006 37.2007,13.93705 74.4156,30.909 106.88,48.74297 2.728,1.49859 5.752,3.15794 6.72,3.68745 24.3426,13.3156 56.2098,33.78757 81.44,52.31828 43.2038,31.73163 88.1128,72.75549 127.2369,116.22946 83.7595,93.07198 150.3941,206.96711 194.7914,332.94716 33.1089,93.94848 53.4232,193.02388 60.1994,293.59998 2.2081,32.7746 2.6333,86.3963 0.9655,121.76 -6.1597,130.6059 -35.2283,237.6405 -88.4271,325.6 -6.1311,10.1372 -14.2137,22.4709 -19.7123,30.08 -22.0935,30.5737 -32.5755,43.2677 -52.0138,62.9903 -24.6344,24.9949 -50.6408,46.1488 -80.32,65.3334 -73.3021,47.3825 -160.4757,76.3037 -250.72,83.18 -14.3065,1.0901 -19.7258,1.317 -36.2662,1.5182 l -15.9463,0.1939 0.2663,14.2721 c 0.6266,33.5863 -0.035,51.6734 -2.4843,67.8721 -2.9931,19.7992 -7.7313,34.448 -17.3519,53.6455 -20.2315,40.3711 -56.937,72.4646 -98.1531,85.8203 -16.941,5.4895 -32.5519,7.5389 -51.8245,6.8035 -9.5943,-0.3661 -13.7072,-0.7875 -20.8,-2.131 -26.7064,-5.0591 -52.005,-17.4048 -89.3876,-43.6215 -4.5461,-3.1882 -8.3694,-5.7968 -8.4962,-5.7968 -0.1269,0 -0.9317,1.692 -1.7886,3.76 -10.4261,25.1631 -22.6405,45.8793 -36.707,62.2568 -11.3174,13.1769 -24.6868,23.9511 -38.7942,31.2639 -4.6993,2.436 -5.392,2.7449 -14.5956,6.5093 -16.3418,6.6841 -29.8865,9.8986 -46.8708,11.1236 -6.2433,0.4503 -19.5567,0.1925 -26.08,-0.5051 -28.6908,-3.0679 -58.4071,-13.6016 -84.2802,-29.875 -2.9609,-1.8624 -3.856,-2.2912 -4.0528,-1.9418 -0.5943,1.055 -9.9993,14.6824 -13.7811,19.9683 -22.4691,31.4052 -42.3211,49.0839 -65.5659,58.388 -16.2208,6.4926 -40.9224,10.0893 -61.6467,8.9761 z m 16.2132,-101.0923 c 11.2432,-1.9388 19.9375,-6.8626 25.6297,-14.5146 2.5326,-3.4046 4.1557,-6.788 6.0232,-12.5557 9.1929,-28.3922 11.8597,-58.1645 8.9861,-100.3215 -0.3539,-5.192 -0.715,-10.16 -0.8024,-11.04 -0.087,-0.88 -0.3837,-4.12 -0.6583,-7.2 -0.2747,-3.08 -1.2135,-12.728 -2.0863,-21.44 -3.5258,-35.1954 -4.62,-50.0323 -3.9027,-52.9198 0.6389,-2.5719 4.6682,-10.3213 6.9315,-13.3311 2.8752,-3.8236 8.0991,-8.7421 12.1911,-11.4783 20.8644,-13.9518 48.0529,-12.3366 64.1616,3.8115 4.6067,4.6179 6.3549,7.4198 8.6697,13.8952 6.4012,17.9066 10.0327,33.5643 16.9266,72.9825 3.1211,17.8455 5.4039,29.7362 7.358,38.3268 1.3587,5.9731 1.4625,6.1916 6.6727,14.0467 12.4275,18.7366 27.3745,33.4052 42.7236,41.928 5.796,3.2183 12.3262,5.6796 18.6744,7.0388 2.9572,0.6332 4.3771,0.7397 9.855,0.7397 5.496,0 6.8933,-0.1055 9.8917,-0.7472 9.9067,-2.1201 20.2186,-7.5771 25.0006,-13.2302 16.1769,-19.1237 24.7969,-40.7427 28.0443,-70.3349 0.5229,-4.7655 0.6702,-8.5313 0.751,-19.2077 0.105,-13.8885 -0.048,-17.8859 -1.1357,-29.76 -1.4266,-15.5653 -2.898,-26.0915 -7.9847,-57.12 -1.2118,-7.392 -2.4516,-14.9812 -2.7551,-16.8648 -0.5249,-3.2578 -0.5242,-3.5701 0.014,-6.4 3.2995,-17.338 15.26,-33.545 30.4874,-41.3118 7.3466,-3.7472 12.9879,-5.1406 20.8862,-5.1591 7.8849,-0.018 12.8243,1.201 20.16,4.9771 6.4395,3.3147 8.815,5.4613 13.6103,12.2988 8.5538,12.1965 13.863,24.8977 22.2481,53.2248 9.0229,30.4819 13.9097,42.5914 22.2255,55.075 3.3583,5.0415 6.1308,8.4929 10.4097,12.9589 1.8555,1.9366 4.3755,4.7437 5.6,6.2379 11.4388,13.9578 24.109,26.5171 34.6096,34.3065 9.1603,6.7952 19.2882,11.901 28.7519,14.4947 6.6596,1.8252 9.9703,2.2339 18.0649,2.2299 h 7.2 l 4.3146,-1.5361 c 5.1092,-1.819 10.3561,-4.2669 13.9959,-6.5296 23.8877,-14.8502 37.209,-44.3806 37.2064,-82.4786 -10e-4,-15.0562 -1.5459,-26.4549 -5.7465,-42.4 -1.0432,-3.96 -2.9937,-11.448 -4.3344,-16.64 -3.1884,-12.347 -5.2032,-19.5933 -7.5182,-27.04 -7.2484,-23.3157 -16.0488,-40.73 -27.0704,-53.5675 -3.5031,-4.0802 -9.2299,-9.6725 -12.8524,-12.5506 l -2.6451,-2.1014 -4.2349,-0.3929 c -34.9062,-3.2387 -72.7992,-11.9211 -103.9895,-23.8272 -7.1885,-2.744 -27.1829,-11.2272 -35.2611,-14.9605 -21.4492,-9.9127 -33.4412,-20.0803 -39.9865,-33.9034 -1.5675,-3.3103 -3.3979,-8.3568 -3.3979,-9.3682 0,-0.3056 3.1557,-0.4921 13.52,-0.7991 62.9532,-1.8645 102.6233,-6.3297 138.32,-15.569 13.0611,-3.3806 42.9027,-12.0758 54.56,-15.8977 44.9178,-14.7263 72.4477,-32.6148 89.6404,-58.2471 3.8488,-5.738 11.508,-19.5186 17.3938,-31.2954 37.8283,-75.6883 54.5369,-168.8968 48.4722,-270.4 -1.4569,-24.3822 -2.9756,-40.9886 -7.3455,-80.32 -5.6282,-50.6557 -6.7986,-63.8933 -7.7096,-87.2 -0.5964,-15.2553 -0.089,-41.6657 1.0104,-52.6013 0.9404,-9.3539 5.1645,-20.3027 11.9887,-31.0745 2.5343,-4.0002 9.8843,-14.0029 12.1922,-16.5926 l 1.2374,-1.3884 2.8397,8.1084 c 12.5162,35.7391 22.2371,68.2478 42.2879,141.4193 20.9617,76.4953 30.5243,108.4201 43.5074,145.2491 9.0243,25.5992 20.0744,53.0659 28.3499,70.4678 3.1665,6.6587 5.99,12.9644 14.2266,31.7722 10.8837,24.8526 17.8924,38.5277 26.2407,51.2 5.8736,8.9159 10.7028,14.8454 17.4687,21.4488 10.4607,10.2094 20.8764,16.2937 33.3991,19.5098 6.615,1.6989 11.5727,2.1979 19.68,1.9809 8.8028,-0.2357 10.3928,-0.4963 17.1692,-2.8142 34.8226,-11.9113 65.1256,-36.7818 93.9228,-77.0853 12.2725,-17.1762 24.2216,-36.7563 40.4239,-66.24 2.0795,-3.784 5.298,-9.616 7.1523,-12.96 4.3237,-7.797 8.4363,-16.0453 10.9294,-21.92 14.9594,-35.2501 20.7857,-74.0998 18.5482,-123.68 -0.1747,-3.872 -0.3832,-7.904 -0.4632,-8.96 -0.08,-1.056 -0.2206,-3 -0.3124,-4.32 -1.1742,-16.8882 -3.5827,-37.8742 -7.231,-63.0054 -1.2035,-8.2902 -1.8577,-12.6409 -4.6486,-30.9146 -1.0922,-7.152 -8.4288,-44.2392 -13.6005,-68.7525 -5.852,-27.738 -10.4208,-45.7831 -16.6616,-65.8075 -8.545,-27.4172 -20.0962,-53.1875 -33.1174,-73.88323 l -2.6948,-4.28325 -0.9684,-4.67675 c -3.5402,-17.09643 -8.8414,-33.32509 -15.9531,-48.83675 -4.0444,-8.82134 -16.4413,-33.67753 -21.1469,-42.4 -31.3099,-58.0379 -68.2318,-110.50595 -111.4663,-158.4 -15.0149,-16.63315 -35.2989,-37.08842 -51.5616,-51.99711 -23.1551,-21.22733 -52.7854,-45.08981 -75.8839,-61.11247 -30.6077,-21.23156 -59.5599,-38.52726 -89.8832,-53.69509 -39.5386,-19.77742 -78.0392,-34.52294 -122.0729,-46.75324 -20.9835,-5.82814 -32.6225,-8.78707 -48.48,-12.32478 -51.3862,-11.464 -101.844,-17.92631 -155.2,-19.87706 -11.2638,-0.41181 -44.649,-0.40948 -56.0329,0.004 -91.6488,3.32816 -178.0599,21.21557 -258.2515,53.45899 -22.1756,8.91638 -48.5382,21.15733 -61.0756,28.35923 -47.1222,27.0687 -89.7593,58.70887 -129.95423,96.43663 -11.33383,10.63816 -30.60991,30.35015 -41.44374,42.38098 -36.44221,40.46858 -68.96348,86.07481 -95.15177,133.43613 -8.52595,15.41913 -20.02628,38.55029 -27.09901,54.50557 -3.8306,8.64138 -9.87123,23.0471 -9.87123,23.54094 0,0.0617 2.89698,-1.01867 6.43774,-2.40079 40.1624,-15.67723 82.09242,-25.52032 123.16226,-28.91239 16.17696,-1.3361 34.01074,-1.75569 47.84,-1.12556 4.928,0.22455 12.488,0.44499 16.8,0.48987 8.3492,0.0869 11.09667,0.40918 16.42175,1.92624 9.66543,2.75359 19.37723,8.71074 27.17623,16.66971 l 2.158,2.20225 -7.278,3.01148 c -31.19249,12.90684 -63.36559,28.85015 -95.27798,47.21479 -58.29422,33.54659 -117.11835,76.97616 -173.12,127.81356 -17.22112,15.6331 -27.90155,25.9098 -49.58233,47.7082 -11.72626,11.7899 -13.38218,13.5531 -17.88196,19.04 -29.14975,35.5449 -45.79413,81.1461 -49.1726,134.72 -0.17758,2.816 -0.68044,10.448 -1.11746,16.96 -6.81929,101.6134 -6.47659,176.1879 1.12496,244.8 5.60771,50.6156 16.00034,99.8767 29.73838,140.96 16.67833,49.8763 43.73555,92.0618 76.61454,119.4516 22.00196,18.3287 46.2555,30.0084 72.51647,34.9214 44.56378,8.3372 91.70031,10.2591 145.28,5.9235 38.83107,-3.1421 83.07798,-9.9771 137.58008,-21.2523 15.0854,-3.1209 26.7767,-5.6312 52.3069,-11.2314 11.5978,-2.5441 21.1587,-4.5538 21.2464,-4.4661 0.2279,0.2279 -2.5444,9.5248 -4.9446,16.5818 -4.3273,12.723 -9.2339,22.2856 -15.1242,29.4756 -2.5234,3.0802 -7.3741,7.7104 -10.1046,9.6453 -1.232,0.873 -4.112,3.0448 -6.4,4.8262 -32.7835,25.5243 -75.2285,48.2201 -130.0872,69.5592 -15.54056,6.045 -48.91297,18.2452 -49.90776,18.2452 -0.42668,0 -0.41104,0.7178 0.16039,7.36 4.96632,57.7281 22.53003,114.4247 52.23067,168.6034 2.6365,4.8094 2.9896,5.2724 15.2489,20.0007 14.7494,17.7196 17.9711,21.45 25.1801,29.1559 13.5357,14.4688 26.7892,25.1872 40.13,32.4539 6.0489,3.2949 13.4253,5.5481 20.9649,6.404 1.672,0.1898 3.544,0.4038 4.16,0.4756 2.5192,0.2937 10.9058,-0.1381 14.4065,-0.7417 z M 1280.64,1834.3695 c -4.6687,-0.547 -8.8486,-1.2537 -12.0752,-2.0416 -24.5166,-5.9867 -47.9762,-22.9622 -74.4411,-53.8661 -9.4404,-11.0238 -15.5369,-20.0329 -21.1887,-31.3118 -8.8731,-17.7071 -14.1986,-36.7751 -16.52,-59.15 -0.5578,-5.3764 -0.5553,-26.2323 0,-32 4.8683,-50.2193 27.8509,-93.0829 63.6739,-118.7542 3.4084,-2.4426 5.9535,-3.4432 12.2659,-4.8225 2.8643,-0.626 4.2462,-0.7258 10.0414,-0.7258 5.7952,0 7.1825,0.1002 10.08,0.7285 20.5051,4.4463 39.5452,19.2735 60.2693,46.934 6.5423,8.7321 18.7504,27.4536 26.2923,40.32 28.4205,48.4855 38.4524,90.4835 31.0334,129.92 -0.4304,2.288 -1.0105,5.96 -1.2892,8.16 -1.7293,13.6529 -5.5856,26.5795 -11.5032,38.56 -10.1394,20.528 -23.9783,32.6675 -41.4426,36.3535 -2.704,0.5707 -4.6095,0.7254 -9.76,0.7923 -3.52,0.046 -7.408,0.2468 -8.64,0.4466 -2.2465,0.3644 -14.6994,0.7032 -16.8,0.4571 z m -320.95998,-98.8883 c -19.47897,-1.758 -33.91917,-5.6913 -49.28,-13.423 -7.76287,-3.9073 -14.37026,-8.1727 -20.48,-13.2208 -1.496,-1.236 -5.36822,-4.3021 -8.60493,-6.8136 -13.82958,-10.7309 -21.62491,-17.6278 -34.44347,-30.474 -14.59447,-14.6259 -25.00066,-26.8571 -36.5662,-42.9791 -58.0506,-80.9207 -84.32412,-188.6126 -72.198,-295.9307 3.44857,-30.5204 9.59899,-58.6784 19.39614,-88.8 11.84761,-36.4257 30.08382,-67.9236 54.91798,-94.8553 15.50967,-16.8196 34.71254,-31.5215 54.61848,-41.8164 23.14826,-11.9717 44.63278,-17.0915 69.28,-16.5094 37.05441,0.8752 73.63768,15.2079 104.81158,41.0636 7.5188,6.2361 19.3983,18.4971 28.1728,29.0775 31.2034,37.6257 54.0199,84.2666 67.4698,137.92 7.2759,29.0243 11.5027,57.7161 13.6476,92.64 0.5355,8.7183 0.747,42.3849 0.3267,52 -0.2,4.576 -0.5038,12.352 -0.6751,17.28 -1.607,46.2372 -6.9505,81.2451 -17.9288,117.4597 -5.085,16.774 -11.1366,32.0429 -19.0165,47.9803 -12.8261,25.9413 -27.2014,46.4857 -45.7628,65.4015 -15.5517,15.8485 -26.1487,23.9706 -40.3253,30.907 -13.3361,6.5253 -26.9732,10.4861 -43.04669,12.5027 -3.8256,0.48 -20.93267,0.8951 -24.31329,0.59 z m -37.92,-329.873 c 11.30284,-1.9531 20.98283,-7.1768 29.45155,-15.8933 4.00313,-4.1203 5.53922,-6.0484 8.75772,-10.9928 12.72242,-19.5446 17.39234,-48.8073 11.41397,-71.5221 -0.44006,-1.672 -1.23836,-4.696 -1.77401,-6.72 -3.72667,-14.0815 -10.0878,-25.4004 -20.25204,-36.036 -8.09357,-8.4688 -19.52766,-15.9894 -29.55457,-19.439 -20.47622,-7.0444 -40.71311,-2.4796 -54.67,12.332 -10.14729,10.7686 -17.09262,24.5089 -20.45179,40.4608 -1.69468,8.0477 -1.9441,10.7916 -1.9454,21.4022 -10e-4,10.8318 0.27844,13.8354 2.08385,22.3727 7.47094,35.3282 30.98801,59.9742 61.42072,64.3691 3.72854,0.5385 11.43145,0.3729 15.52,-0.3336 z M 1535.84,1661.2407 c -37.5215,-2.0549 -74.2971,-17.0957 -105.12,-42.9927 -5.3486,-4.4939 -17.7052,-16.8301 -21.8039,-21.768 -6.6481,-8.0092 -11.767,-15.2535 -19.22,-27.2 -34.9265,-55.984 -56.9687,-120.4914 -64.4036,-188.48 -1.9628,-17.9482 -2.5548,-29.5916 -2.5463,-50.08 0.01,-20.241 0.6172,-32.0196 2.5557,-49.44 7.8797,-70.8097 31.3928,-135.7787 65.6049,-181.2728 12.003,-15.9611 26.1479,-30.2976 40.4882,-41.0367 15.0412,-11.264 31.5809,-19.9052 48.765,-25.4773 6.3327,-2.0534 17.0505,-4.8529 22.88,-5.9763 26.5512,-5.1167 53.9053,-2.2547 80.96,8.4707 5.8631,2.3244 16.7586,7.6118 22.7523,11.0414 19.9592,11.4208 39.1464,27.6945 54.9163,46.5777 7.3634,8.8171 13.7699,17.9769 20.8112,29.7555 31.0208,51.8906 49.3275,111.5172 53.9862,175.8378 1.5788,21.7969 1.4658,46.0172 -0.3195,68.48 -3.2812,41.2858 -12.446,83.5128 -26.5306,122.24 -2.7021,7.4298 -19.9457,50.6644 -23.8131,59.7061 -20.8627,48.776 -40.5205,74.8302 -68.8909,91.3072 -4.3338,2.517 -16.7605,8.4075 -22.5473,10.6878 -11.9388,4.7046 -24.1998,7.6658 -37.3318,9.0162 -4.727,0.4861 -16.9694,0.8347 -21.1928,0.6034 z m -6.9393,-282.8712 c 12.7542,-11.9012 20.3479,-27.9626 22.9822,-48.6095 0.7057,-5.5317 0.8037,-20.6195 0.1735,-26.72 -1.6155,-15.6363 -4.9436,-30.5144 -10.4354,-46.6512 -4.7708,-14.0181 -5.8759,-16.6449 -8.9143,-21.1888 -2.0633,-3.0856 -8.0211,-9.0434 -11.1067,-11.1066 -6.8911,-4.6079 -14.2943,-6.7267 -20.6409,-5.9075 -9.4431,1.219 -15.1762,6.2746 -21.2903,18.7741 -4.3311,8.8544 -6.6566,18.1344 -7.6984,30.72 -0.4733,5.7172 -0.1974,23.568 0.4822,31.2 1.7847,20.0426 2.1946,22.8583 4.822,33.12 4.6608,18.204 11.0131,30.8146 19.6051,38.9198 7.2485,6.8379 15.3384,10.0792 25.3768,10.1677 l 3.6965,0.032 z"
            />
        </g>
    </symbol>
    
    
</svg>